<svg width="500" height="500" viewBox="0 0 500 500" fill="none" xmlns="http://www.w3.org/2000/svg">
  <style>
    /* Default: Black for Light Mode */
    .nubian-logo { 
      fill: #000000; 
    }

    /* Override: White for Dark Mode */
    @media (prefers-color-scheme: dark) {
      .nubian-logo { 
        fill: #FFFFFF; 
      }
    }
  </style>
  <g>
    <path class="nubian-logo" d="M335.9 304.79C340.33 307.58 340.85 311.95 340.85 313.74C340.85 315.53 340.34 320.2 335.52 322.95L251.26 371.59C241.74 377.09 229.93 377.09 220.41 371.59L136.15 322.95C131.33 320.2 130.82 315.61 130.82 313.74C130.82 311.87 131.33 307.31 136.15 304.53L149.9 296.59L134.02 287.43C132.73 286.68 131.5 285.86 130.31 285.01L126.23 287.36C116.68 292.88 110.99 302.74 110.99 313.74C110.99 324.74 116.68 334.62 126.23 340.14L210.49 388.76C218.31 393.26 227.06 395.53 235.85 395.53C244.64 395.53 253.36 393.26 261.18 388.76L345.44 340.14C354.99 334.62 360.68 324.76 360.68 313.74C360.68 306.51 358.18 299.81 353.78 294.47L335.9 304.79Z" />
    <path class="nubian-logo" d="M350.06 241.04C354.49 243.83 355.01 248.2 355.01 249.99C355.01 251.78 354.5 256.45 349.68 259.2L323.16 274.5L303.33 285.97L265.42 307.84C255.9 313.34 244.09 313.34 234.57 307.84L182.5 277.78L162.67 266.33L150.32 259.19C145.5 256.44 144.99 251.85 144.99 249.98C144.99 248.11 145.5 243.55 150.32 240.77L164.07 232.83L148.19 223.67C146.9 222.92 145.67 222.1 144.48 221.25L140.4 223.6C130.85 229.12 125.16 238.98 125.16 249.98C125.16 260.98 130.85 270.86 140.4 276.38L142.81 277.77L162.64 289.22L224.66 325C232.48 329.5 241.23 331.77 250.02 331.77C258.81 331.77 267.53 329.5 275.35 325L323.2 297.41L343.03 285.96L359.6 276.38C369.15 270.86 374.84 261 374.84 249.98C374.84 242.75 372.34 236.05 367.94 230.71L350.06 241.03V241.04Z" />
    <path class="nubian-logo" d="M373.77 159.87L289.51 111.25C273.87 102.21 254.46 102.21 238.83 111.25L154.57 159.87C145.02 165.39 139.33 175.25 139.33 186.25C139.33 197.25 145.02 207.13 154.57 212.65L156.98 214.04L176.81 225.49L205.11 241.84L224.97 253.29L238.82 261.28C246.64 265.78 255.39 268.05 264.18 268.05C266.59 268.05 268.97 267.88 271.35 267.51C277.67 266.63 283.84 264.54 289.51 261.28L294.86 258.19L337.36 233.68L357.19 222.23L373.76 212.65C383.31 207.13 389 197.27 389 186.25C389 175.23 383.31 165.4 373.76 159.87H373.77ZM363.85 195.45L337.33 210.75L317.5 222.22L279.59 244.09C277.98 245.02 276.28 245.82 274.55 246.41C266.11 249.41 256.65 248.65 248.74 244.09L225.45 230.63L196.67 214.03L176.84 202.58L164.49 195.44C159.67 192.69 159.16 188.1 159.16 186.23C159.16 184.36 159.67 179.8 164.49 177.02L248.75 128.4C258.27 122.9 270.08 122.9 279.6 128.4L363.86 177.02C368.68 179.8 369.19 184.39 369.19 186.23C369.19 188.07 368.68 192.69 363.86 195.44L363.85 195.45Z" />
    <path class="nubian-logo" d="M34.6104 210.71C33.8604 210.71 33.1103 210.63 32.3903 210.46C29.8003 209.87 27.5903 208.3 26.1703 206.05C24.7503 203.8 24.3004 201.13 24.8904 198.53C34.5204 156.24 55.9104 117.58 86.7504 86.7399C117.59 55.8999 156.24 34.5099 198.54 24.8799C199.26 24.7199 200.01 24.6299 200.76 24.6299C205.44 24.6299 209.43 27.8199 210.47 32.3899C211.06 34.9799 210.61 37.6499 209.19 39.9099C207.77 42.1699 205.56 43.7299 202.96 44.3199C124.47 62.1899 62.2003 124.46 44.3204 202.96C43.2804 207.53 39.2904 210.72 34.6104 210.72V210.71Z" />
    <path class="nubian-logo" d="M200.75 475.37C200.01 475.37 199.26 475.29 198.53 475.12C156.24 465.49 117.58 444.1 86.7396 413.26C55.8996 382.42 34.5096 343.77 24.8796 301.47C24.2896 298.87 24.7396 296.2 26.1596 293.95C27.5696 291.7 29.7796 290.13 32.3896 289.54C33.1196 289.37 33.8596 289.29 34.6096 289.29C39.2896 289.29 43.2896 292.48 44.3196 297.05C62.1996 375.54 124.47 437.81 202.96 455.69C205.56 456.28 207.77 457.85 209.19 460.1C210.61 462.36 211.06 465.03 210.47 467.62C209.43 472.19 205.44 475.38 200.76 475.38L200.75 475.37Z" />
    <path class="nubian-logo" d="M299.19 473.23C294.54 473.23 290.57 470.06 289.54 465.53C288.96 462.95 289.41 460.3 290.81 458.06C292.22 455.82 294.42 454.26 296.99 453.68C374.72 435.98 436.38 374.32 454.08 296.59C455.11 292.06 459.08 288.89 463.73 288.89C464.47 288.89 465.21 288.97 465.93 289.14C468.51 289.73 470.7 291.28 472.11 293.52C473.52 295.75 473.97 298.41 473.39 300.99C463.85 342.88 442.66 381.17 412.11 411.72C381.57 442.27 343.28 463.46 301.38 473C300.66 473.16 299.92 473.25 299.18 473.25L299.19 473.23Z" />
    <path class="nubian-logo" d="M463.73 211.12C459.08 211.12 455.12 207.95 454.08 203.42C436.38 125.69 374.72 64.03 296.99 46.33C294.41 45.74 292.21 44.19 290.81 41.95C289.4 39.71 288.95 37.06 289.54 34.48C290.57 29.94 294.54 26.77 299.19 26.77C299.93 26.77 300.67 26.85 301.39 27.02C343.28 36.56 381.57 57.75 412.12 88.3C442.67 118.85 463.86 157.14 473.39 199.02C473.98 201.6 473.53 204.26 472.11 206.49C470.7 208.73 468.51 210.28 465.93 210.87C465.21 211.03 464.47 211.12 463.73 211.12Z" />
    <path class="nubian-logo" d="M250 58.18C233.96 58.18 220.91 45.13 220.91 29.09C220.91 13.05 233.96 0 250 0C266.04 0 279.09 13.05 279.09 29.09C279.09 45.13 266.04 58.18 250 58.18ZM250 17.19C243.43 17.19 238.09 22.53 238.09 29.09C238.09 35.65 243.43 40.99 250 40.99C256.57 40.99 261.9 35.65 261.9 29.09C261.9 22.53 256.56 17.19 250 17.19Z" />
    <path class="nubian-logo" d="M250 500C233.96 500 220.91 486.95 220.91 470.91C220.91 454.87 233.96 441.82 250 441.82C266.04 441.82 279.09 454.87 279.09 470.91C279.09 486.95 266.04 500 250 500ZM250 459.01C243.43 459.01 238.09 464.35 238.09 470.91C238.09 477.47 243.43 482.81 250 482.81C256.57 482.81 261.9 477.47 261.9 470.91C261.9 464.35 256.56 459.01 250 459.01Z" />
    <path class="nubian-logo" d="M29.09 279.09C13.05 279.09 0 266.04 0 250C0 233.96 13.05 220.91 29.09 220.91C45.13 220.91 58.18 233.96 58.18 250C58.18 266.04 45.13 279.09 29.09 279.09ZM29.09 238.1C22.52 238.1 17.18 243.44 17.18 250C17.18 256.56 22.52 261.9 29.09 261.9C35.66 261.9 40.99 256.56 40.99 250C40.99 243.44 35.65 238.1 29.09 238.1Z" />
    <path class="nubian-logo" d="M470.91 279.09C454.87 279.09 441.82 266.04 441.82 250C441.82 233.96 454.87 220.91 470.91 220.91C486.95 220.91 500 233.96 500 250C500 266.04 486.95 279.09 470.91 279.09ZM470.91 238.1C464.35 238.1 459.01 243.44 459.01 250C459.01 256.56 464.35 261.9 470.91 261.9C477.47 261.9 482.81 256.56 482.81 250C482.81 243.44 477.47 238.1 470.91 238.1Z" />
  </g>
</svg>