<?xml version="1.0" encoding="UTF-8"?>
<svg id="Layer_1" data-name="Layer 1" xmlns="http://www.w3.org/2000/svg" viewBox="0 0 650 650">
  <defs>
    <style>
      .cls-1 {
        fill: #d02323;
        stroke-width: 0px;
      }
    </style>
  </defs>
  <g>
    <path class="cls-1" d="M410.9,379.79c4.43,2.79,4.95,7.16,4.95,8.95s-.51,6.46-5.33,9.21l-84.26,48.64c-9.52,5.5-21.33,5.5-30.85,0l-84.26-48.64c-4.82-2.75-5.33-7.34-5.33-9.21s.51-6.43,5.33-9.21l13.75-7.94-15.88-9.16c-1.29-.75-2.52-1.57-3.71-2.42l-4.08,2.35c-9.55,5.52-15.24,15.38-15.24,26.38s5.69,20.88,15.24,26.4l84.26,48.62c7.82,4.5,16.57,6.77,25.36,6.77s17.51-2.27,25.33-6.77l84.26-48.62c9.55-5.52,15.24-15.38,15.24-26.4,0-7.23-2.5-13.93-6.9-19.27l-17.88,10.32Z"/>
    <path class="cls-1" d="M425.06,316.04c4.43,2.79,4.95,7.16,4.95,8.95s-.51,6.46-5.33,9.21l-26.52,15.3-19.83,11.47-37.91,21.87c-9.52,5.5-21.33,5.5-30.85,0l-52.07-30.06-19.83-11.45-12.35-7.14c-4.82-2.75-5.33-7.34-5.33-9.21s.51-6.43,5.33-9.21l13.75-7.94-15.88-9.16c-1.29-.75-2.52-1.57-3.71-2.42l-4.08,2.35c-9.55,5.52-15.24,15.38-15.24,26.38s5.69,20.88,15.24,26.4l2.41,1.39,19.83,11.45,62.02,35.78c7.82,4.5,16.57,6.77,25.36,6.77s17.51-2.27,25.33-6.77l47.85-27.59,19.83-11.45,16.57-9.58c9.55-5.52,15.24-15.38,15.24-26.4,0-7.23-2.5-13.93-6.9-19.27l-17.88,10.32Z"/>
    <path class="cls-1" d="M448.77,234.87l-84.26-48.62c-15.64-9.04-35.05-9.04-50.68,0l-84.26,48.62c-9.55,5.52-15.24,15.38-15.24,26.38s5.69,20.88,15.24,26.4l2.41,1.39,19.83,11.45,28.3,16.35,19.86,11.45,13.85,7.99c7.82,4.5,16.57,6.77,25.36,6.77,2.41,0,4.79-.17,7.17-.54,6.32-.88,12.49-2.97,18.16-6.23l5.35-3.09,42.5-24.51,19.83-11.45,16.57-9.58c9.55-5.52,15.24-15.38,15.24-26.4s-5.69-20.85-15.24-26.38ZM438.85,270.45l-26.52,15.3-19.83,11.47-37.91,21.87c-1.61.93-3.31,1.73-5.04,2.32-8.44,3-17.9,2.24-25.81-2.32l-23.29-13.46-28.78-16.6-19.83-11.45-12.35-7.14c-4.82-2.75-5.33-7.34-5.33-9.21s.51-6.43,5.33-9.21l84.26-48.62c9.52-5.5,21.33-5.5,30.85,0l84.26,48.62c4.82,2.78,5.33,7.37,5.33,9.21s-.51,6.46-5.33,9.21Z"/>
  </g>
  <g>
    <path class="cls-1" d="M109.61,285.71c-.75,0-1.5-.08-2.22-.25-2.59-.59-4.8-2.16-6.22-4.41-1.42-2.25-1.87-4.92-1.28-7.52,9.63-42.29,31.02-80.95,61.86-111.79,30.84-30.84,69.49-52.23,111.79-61.86.72-.16,1.47-.25,2.22-.25,4.68,0,8.67,3.19,9.71,7.76.59,2.59.14,5.26-1.28,7.52-1.42,2.26-3.63,3.82-6.23,4.41-78.49,17.87-140.76,80.14-158.64,158.64-1.04,4.57-5.03,7.76-9.71,7.76Z"/>
    <path class="cls-1" d="M275.75,550.37c-.74,0-1.49-.08-2.22-.25-42.29-9.63-80.95-31.02-111.79-61.86-30.84-30.84-52.23-69.49-61.86-111.79-.59-2.6-.14-5.27,1.28-7.52,1.41-2.25,3.62-3.82,6.23-4.41.73-.17,1.47-.25,2.22-.25,4.68,0,8.68,3.19,9.71,7.76,17.88,78.49,80.15,140.76,158.64,158.64,2.6.59,4.81,2.16,6.23,4.41,1.42,2.26,1.87,4.93,1.28,7.52-1.04,4.57-5.03,7.76-9.71,7.76Z"/>
    <path class="cls-1" d="M374.19,548.23c-4.65,0-8.62-3.17-9.65-7.7-.58-2.58-.13-5.23,1.27-7.47,1.41-2.24,3.61-3.8,6.18-4.38,77.73-17.7,139.39-79.36,157.09-157.09,1.03-4.53,5-7.7,9.65-7.7.74,0,1.48.08,2.2.25,2.58.59,4.77,2.14,6.18,4.38,1.41,2.23,1.86,4.89,1.28,7.47-9.54,41.89-30.73,80.18-61.28,110.73-30.54,30.55-68.83,51.74-110.73,61.28-.72.16-1.46.25-2.2.25Z"/>
    <path class="cls-1" d="M538.73,286.12c-4.65,0-8.61-3.17-9.65-7.7-17.7-77.73-79.36-139.39-157.09-157.09-2.58-.59-4.78-2.14-6.18-4.38-1.41-2.24-1.86-4.89-1.27-7.47,1.03-4.54,5-7.71,9.65-7.71.74,0,1.48.08,2.2.25,41.89,9.54,80.18,30.73,110.73,61.28,30.55,30.55,51.74,68.84,61.27,110.72.59,2.58.14,5.24-1.28,7.47-1.41,2.24-3.6,3.79-6.18,4.38-.72.16-1.46.25-2.2.25Z"/>
    <path class="cls-1" d="M325,133.18c-16.04,0-29.09-13.05-29.09-29.09s13.05-29.09,29.09-29.09,29.09,13.05,29.09,29.09-13.05,29.09-29.09,29.09ZM325,92.19c-6.57,0-11.91,5.34-11.91,11.9s5.34,11.9,11.91,11.9,11.9-5.34,11.9-11.9-5.34-11.9-11.9-11.9Z"/>
    <path class="cls-1" d="M325,575c-16.04,0-29.09-13.05-29.09-29.09s13.05-29.09,29.09-29.09,29.09,13.05,29.09,29.09-13.05,29.09-29.09,29.09ZM325,534.01c-6.57,0-11.91,5.34-11.91,11.9s5.34,11.9,11.91,11.9,11.9-5.34,11.9-11.9-5.34-11.9-11.9-11.9Z"/>
    <path class="cls-1" d="M104.09,354.09c-16.04,0-29.09-13.05-29.09-29.09s13.05-29.09,29.09-29.09,29.09,13.05,29.09,29.09-13.05,29.09-29.09,29.09ZM104.09,313.1c-6.57,0-11.91,5.34-11.91,11.9s5.34,11.9,11.91,11.9,11.9-5.34,11.9-11.9-5.34-11.9-11.9-11.9Z"/>
    <path class="cls-1" d="M545.91,354.09c-16.04,0-29.09-13.05-29.09-29.09s13.05-29.09,29.09-29.09,29.09,13.05,29.09,29.09-13.05,29.09-29.09,29.09ZM545.91,313.1c-6.56,0-11.9,5.34-11.9,11.9s5.34,11.9,11.9,11.9,11.9-5.34,11.9-11.9-5.34-11.9-11.9-11.9Z"/>
  </g>
</svg>